<svg xmlns="http://www.w3.org/2000/svg" xmlns:xlink="http://www.w3.org/1999/xlink" version="1.1" x="0px" y="0px" viewBox="0 0 100 125" enable-background="new 0 0 100 100" xml:space="preserve"><g display="none"><rect x="-1090" y="-181" display="inline" fill="#000000" width="1448" height="452"/></g><g><path d="M75.412,39.76c-10.539-12.374-28.241-15.03-41.79-7.08l-4.409-5.177l-8.793,7.489l4.409,5.177   c-10.006,12.111-10.202,30.01,0.337,42.384c11.817,13.875,32.645,15.544,46.52,3.727C85.561,74.463,87.229,53.635,75.412,39.76z"/><path d="M19.119,26.064c0.127,0,0.255-0.012,0.384-0.035c1.156-0.21,1.924-1.318,1.713-2.475c-0.339-1.861-0.389-3.051,0.276-4.388   c0.637-1.282,1.685-2.239,2.876-2.625c1.557-0.505,3.448-0.085,4.7,1.047c0.55,0.497,0.889,1.272,1.281,2.171   c0.337,0.772,0.719,1.648,1.306,2.475c1.474,2.077,3.917,3.365,6.382,3.365c0.006,0,0.013,0,0.019,0   c2.364-0.007,4.515-1.083,6.055-3.03c1.908-2.411,2.686-5.916,1.981-8.93c-0.267-1.145-1.407-1.857-2.557-1.589   c-1.145,0.268-1.855,1.412-1.588,2.557c0.407,1.744-0.076,3.932-1.175,5.321c-0.74,0.936-1.658,1.412-2.729,1.415   c-0.002,0-0.005,0-0.008,0c-1.09,0-2.231-0.616-2.91-1.571c-0.332-0.468-0.596-1.073-0.876-1.714   c-0.515-1.179-1.098-2.515-2.328-3.626c-2.381-2.152-5.861-2.91-8.867-1.938c-2.272,0.737-4.231,2.479-5.375,4.779   c-1.306,2.628-1.038,4.921-0.651,7.044C17.214,25.344,18.111,26.064,19.119,26.064z"/><path d="M48.597,15.356h2.128c0.588,0,1.064-0.476,1.064-1.064s-0.477-1.064-1.064-1.064h-2.128c-0.588,0-1.064,0.476-1.064,1.064   S48.009,15.356,48.597,15.356z"/><path d="M36.955,15.356h2.129c0.588,0,1.064-0.476,1.064-1.064s-0.477-1.064-1.064-1.064h-2.129c-0.588,0-1.064,0.476-1.064,1.064   S36.367,15.356,36.955,15.356z"/><path d="M44.34,10.099c0.588,0,1.064-0.476,1.064-1.064V6.907c0-0.588-0.477-1.064-1.064-1.064s-1.064,0.476-1.064,1.064v2.128   C43.276,9.623,43.752,10.099,44.34,10.099z"/></g><text x="0" y="115" fill="#000000" font-size="5px" font-weight="bold" font-family="'Helvetica Neue', Helvetica, Arial-Unicode, Arial, Sans-serif">Created by Oksana Latysheva</text><text x="0" y="120" fill="#000000" font-size="5px" font-weight="bold" font-family="'Helvetica Neue', Helvetica, Arial-Unicode, Arial, Sans-serif">from the Noun Project</text></svg>